<svg width="187" height="39" viewBox="0 0 187 39" fill="none" xmlns="http://www.w3.org/2000/svg">
<path d="M31.8352 15.3125H24.3693C24.233 14.3466 23.9545 13.4886 23.5341 12.7386C23.1136 11.9773 22.5739 11.3295 21.9148 10.7955C21.2557 10.2614 20.4943 9.85227 19.6307 9.56818C18.7784 9.28409 17.8523 9.14205 16.8523 9.14205C15.0455 9.14205 13.4716 9.59091 12.1307 10.4886C10.7898 11.375 9.75 12.6705 9.01136 14.375C8.27273 16.0682 7.90341 18.125 7.90341 20.5455C7.90341 23.0341 8.27273 25.125 9.01136 26.8182C9.76136 28.5114 10.8068 29.7898 12.1477 30.6534C13.4886 31.517 15.0398 31.9489 16.8011 31.9489C17.7898 31.9489 18.7045 31.8182 19.5455 31.5568C20.3977 31.2955 21.1534 30.9148 21.8125 30.4148C22.4716 29.9034 23.017 29.2841 23.4489 28.5568C23.892 27.8295 24.1989 27 24.3693 26.0682L31.8352 26.1023C31.642 27.7045 31.1591 29.25 30.3864 30.7386C29.625 32.2159 28.5966 33.5398 27.3011 34.7102C26.017 35.8693 24.483 36.7898 22.6989 37.4716C20.9261 38.142 18.9205 38.4773 16.6818 38.4773C13.5682 38.4773 10.7841 37.7727 8.32955 36.3636C5.88636 34.9545 3.95455 32.9148 2.53409 30.2443C1.125 27.5739 0.420455 24.3409 0.420455 20.5455C0.420455 16.7386 1.13636 13.5 2.56818 10.8295C4 8.15909 5.94318 6.125 8.39773 4.72727C10.8523 3.31818 13.6136 2.61364 16.6818 2.61364C18.7045 2.61364 20.5795 2.89773 22.3068 3.46591C24.0455 4.03409 25.5852 4.86364 26.9261 5.95454C28.267 7.03409 29.358 8.35795 30.1989 9.92614C31.0511 11.4943 31.5966 13.2898 31.8352 15.3125ZM36.9915 38V11.8182H44.2528V38H36.9915ZM40.6392 8.44318C39.5597 8.44318 38.6335 8.08523 37.8608 7.36932C37.0994 6.64204 36.7188 5.77273 36.7188 4.76136C36.7188 3.76136 37.0994 2.90341 37.8608 2.1875C38.6335 1.46023 39.5597 1.09659 40.6392 1.09659C41.7188 1.09659 42.6392 1.46023 43.4006 2.1875C44.1733 2.90341 44.5597 3.76136 44.5597 4.76136C44.5597 5.77273 44.1733 6.64204 43.4006 7.36932C42.6392 8.08523 41.7188 8.44318 40.6392 8.44318ZM57.331 22.8636V38H50.0696V11.8182H56.9901V16.4375H57.2969C57.8764 14.9148 58.848 13.7102 60.2116 12.8239C61.5753 11.9261 63.2287 11.4773 65.1719 11.4773C66.9901 11.4773 68.5753 11.875 69.9276 12.6705C71.2798 13.4659 72.331 14.6023 73.081 16.0795C73.831 17.5455 74.206 19.2955 74.206 21.3295V38H66.9446V22.625C66.956 21.0227 66.5469 19.7727 65.7173 18.875C64.8878 17.9659 63.7457 17.5114 62.2912 17.5114C61.3139 17.5114 60.4503 17.7216 59.7003 18.142C58.9616 18.5625 58.3821 19.1761 57.9616 19.983C57.5526 20.7784 57.3423 21.7386 57.331 22.8636ZM91.8608 38.5114C89.1676 38.5114 86.8494 37.9659 84.9062 36.875C82.9744 35.7727 81.4858 34.2159 80.4403 32.2045C79.3949 30.1818 78.8722 27.7898 78.8722 25.0284C78.8722 22.3352 79.3949 19.9716 80.4403 17.9375C81.4858 15.9034 82.9574 14.3182 84.8551 13.1818C86.7642 12.0455 89.0028 11.4773 91.571 11.4773C93.2983 11.4773 94.9063 11.7557 96.3949 12.3125C97.8949 12.858 99.2017 13.6818 100.315 14.7841C101.44 15.8864 102.315 17.2727 102.94 18.9432C103.565 20.6023 103.878 22.5455 103.878 24.7727V26.767H81.7699V22.267H97.0426C97.0426 21.2216 96.8153 20.2955 96.3608 19.4886C95.9063 18.6818 95.2756 18.0511 94.4688 17.5966C93.6733 17.1307 92.7472 16.8977 91.6903 16.8977C90.5881 16.8977 89.6108 17.1534 88.7585 17.6648C87.9176 18.1648 87.2585 18.8409 86.7812 19.6932C86.304 20.5341 86.0597 21.4716 86.0483 22.5057V26.7841C86.0483 28.0795 86.2869 29.1989 86.7642 30.142C87.2528 31.0852 87.9403 31.8125 88.8267 32.3239C89.7131 32.8352 90.7642 33.0909 91.9801 33.0909C92.7869 33.0909 93.5256 32.9773 94.196 32.75C94.8665 32.5227 95.4403 32.1818 95.9176 31.7273C96.3949 31.2727 96.7585 30.7159 97.0085 30.0568L103.724 30.5C103.384 32.1136 102.685 33.5227 101.628 34.7273C100.582 35.9205 99.2301 36.8523 97.571 37.5227C95.9233 38.1818 94.0199 38.5114 91.8608 38.5114ZM88.7926 8.44318L92.4062 0.6875H99.1222L93.9233 8.44318H88.7926ZM108.753 38V3.09091H131.866V9.17614H116.134V17.4943H130.332V23.5795H116.134V38H108.753ZM143.956 3.09091V38H136.695V3.09091H143.956ZM149.773 38V11.8182H157.034V38H149.773ZM153.42 8.44318C152.341 8.44318 151.415 8.08523 150.642 7.36932C149.881 6.64204 149.5 5.77273 149.5 4.76136C149.5 3.76136 149.881 2.90341 150.642 2.1875C151.415 1.46023 152.341 1.09659 153.42 1.09659C154.5 1.09659 155.42 1.46023 156.182 2.1875C156.955 2.90341 157.341 3.76136 157.341 4.76136C157.341 5.77273 156.955 6.64204 156.182 7.36932C155.42 8.08523 154.5 8.44318 153.42 8.44318ZM168.919 11.8182L173.726 20.9716L178.652 11.8182H186.101L178.516 24.9091L186.305 38H178.891L173.726 28.9489L168.646 38H161.146L168.919 24.9091L161.419 11.8182H168.919Z" fill="white"/>
</svg>
