<svg width="244" height="140" viewBox="0 0 244 140" fill="none" xmlns="http://www.w3.org/2000/svg">
<path d="M0 16.7532C0 7.79912 7.2587 0.540405 16.2128 0.540405H226.979C235.933 0.540405 243.191 7.79911 243.191 16.7532V123.757C243.191 132.711 235.933 139.97 226.979 139.97H16.2128C7.25872 139.97 0 132.711 0 123.757V16.7532Z" fill="url(#paint0_linear_33_2061)"/>
<path fill-rule="evenodd" clip-rule="evenodd" d="M35.6235 102.294C35.5172 101.952 35.2362 101.703 34.8957 101.652L30.3851 100.964L28.3694 96.6801C28.0667 96.0344 27.0562 96.0344 26.7535 96.6801L24.7378 100.964L20.2272 101.652C19.8867 101.703 19.6057 101.952 19.4994 102.294C19.3931 102.635 19.4814 103.009 19.7264 103.26L22.9905 106.595L22.2213 111.304C22.1619 111.657 22.3006 112.016 22.578 112.227C22.8572 112.441 23.2265 112.467 23.5273 112.299L27.5606 110.077L31.5956 112.299C31.7271 112.371 31.8712 112.407 32.0153 112.407C32.2009 112.407 32.3882 112.346 32.545 112.227C32.8206 112.016 32.9593 111.657 32.9016 111.304L32.1324 106.595L35.3965 103.26C35.6415 103.009 35.7298 102.635 35.6235 102.294" fill="#E8D423"/>
<path fill-rule="evenodd" clip-rule="evenodd" d="M55.8896 102.294C55.7833 101.952 55.5023 101.703 55.1619 101.652L50.6512 100.964L48.6355 96.6801C48.3329 96.0344 47.3223 96.0344 47.0197 96.6801L45.0039 100.964L40.4933 101.652C40.1528 101.703 39.8718 101.952 39.7655 102.294C39.6593 102.635 39.7475 103.009 39.9925 103.26L43.2566 106.595L42.4874 111.304C42.428 111.657 42.5667 112.016 42.8441 112.227C43.1233 112.441 43.4926 112.467 43.7934 112.299L47.8267 110.077L51.8617 112.299C51.9932 112.371 52.1374 112.407 52.2815 112.407C52.467 112.407 52.6543 112.346 52.8111 112.227C53.0867 112.016 53.2254 111.657 53.1677 111.304L52.3986 106.595L55.6626 103.26C55.9076 103.009 55.9959 102.635 55.8896 102.294" fill="#E8D423"/>
<path fill-rule="evenodd" clip-rule="evenodd" d="M76.1552 102.294C76.049 101.952 75.7679 101.703 75.4275 101.652L70.9168 100.964L68.9011 96.6801C68.5985 96.0344 67.5879 96.0344 67.2853 96.6801L65.2696 100.964L60.7589 101.652C60.4185 101.703 60.1374 101.952 60.0312 102.294C59.9249 102.635 60.0132 103.009 60.2581 103.26L63.5222 106.595L62.753 111.304C62.6936 111.657 62.8323 112.016 63.1097 112.227C63.3889 112.441 63.7582 112.467 64.059 112.299L68.0923 110.077L72.1274 112.299C72.2589 112.371 72.403 112.407 72.5471 112.407C72.7326 112.407 72.92 112.346 73.0767 112.227C73.3523 112.016 73.491 111.657 73.4334 111.304L72.6642 106.595L75.9283 103.26C76.1732 103.009 76.2615 102.635 76.1552 102.294" fill="#E8D423"/>
<path fill-rule="evenodd" clip-rule="evenodd" d="M96.4213 102.294C96.3151 101.952 96.0341 101.703 95.6936 101.652L91.183 100.964L89.1672 96.6801C88.8646 96.0344 87.854 96.0344 87.5514 96.6801L85.5357 100.964L81.025 101.652C80.6846 101.703 80.4036 101.952 80.2973 102.294C80.191 102.635 80.2793 103.009 80.5243 103.26L83.7883 106.595L83.0191 111.304C82.9597 111.657 83.0984 112.016 83.3758 112.227C83.655 112.441 84.0243 112.467 84.3251 112.299L88.3584 110.077L92.3935 112.299C92.525 112.371 92.6691 112.407 92.8132 112.407C92.9987 112.407 93.1861 112.346 93.3428 112.227C93.6184 112.016 93.7571 111.657 93.6995 111.304L92.9303 106.595L96.1944 103.26C96.4394 103.009 96.5276 102.635 96.4213 102.294" fill="#E8D423"/>
<path fill-rule="evenodd" clip-rule="evenodd" d="M116.687 102.294C116.581 101.952 116.3 101.703 115.96 101.652L111.449 100.964L109.433 96.6801C109.131 96.0344 108.12 96.0344 107.818 96.6801L105.802 100.964L101.291 101.652C100.951 101.703 100.67 101.952 100.563 102.294C100.457 102.635 100.545 103.009 100.79 103.26L104.054 106.595L103.285 111.304C103.226 111.657 103.365 112.016 103.642 112.227C103.921 112.441 104.29 112.467 104.591 112.299L108.625 110.077L112.66 112.299C112.791 112.371 112.935 112.407 113.079 112.407C113.265 112.407 113.452 112.346 113.609 112.227C113.885 112.016 114.023 111.657 113.966 111.304L113.196 106.595L116.46 103.26C116.705 103.009 116.794 102.635 116.687 102.294" fill="#C4C4C4"/>
<path d="M178.551 114.329C177.306 113.11 176.333 111.56 175.633 109.68C174.945 107.799 174.601 105.769 174.601 103.59C174.601 101.359 174.965 99.2774 175.691 97.3449C176.43 95.3994 177.481 93.7975 178.843 92.5394H180.691V92.7145C179.238 94.0764 178.142 95.7171 177.403 97.6367C176.677 99.5433 176.314 101.528 176.314 103.59C176.314 105.6 176.657 107.52 177.345 109.349C178.045 111.178 179.063 112.779 180.399 114.154V114.329H178.551ZM182.502 100.185C182.593 98.9921 183.054 98.0582 183.884 97.3838C184.714 96.7093 185.79 96.3721 187.113 96.3721C187.995 96.3721 188.754 96.5342 189.389 96.8585C190.038 97.1698 190.524 97.5978 190.849 98.1426C191.186 98.6873 191.354 99.3034 191.354 99.9908C191.354 100.795 191.121 101.489 190.654 102.073C190.2 102.656 189.603 103.032 188.864 103.201V103.298C189.707 103.506 190.375 103.914 190.868 104.524C191.361 105.134 191.607 105.931 191.607 106.917C191.607 107.656 191.439 108.324 191.102 108.921C190.764 109.504 190.258 109.965 189.584 110.302C188.91 110.639 188.099 110.808 187.152 110.808C185.777 110.808 184.649 110.451 183.767 109.738C182.885 109.012 182.392 107.987 182.288 106.664H184C184.091 107.442 184.409 108.078 184.954 108.571C185.498 109.063 186.225 109.31 187.133 109.31C188.041 109.31 188.728 109.076 189.195 108.61C189.675 108.13 189.915 107.514 189.915 106.761C189.915 105.788 189.59 105.088 188.942 104.66C188.293 104.232 187.314 104.018 186.004 104.018H185.557V102.539H186.024C187.217 102.526 188.118 102.332 188.728 101.956C189.338 101.567 189.642 100.97 189.642 100.166C189.642 99.4785 189.415 98.9273 188.961 98.5122C188.52 98.0972 187.885 97.8896 187.055 97.8896C186.251 97.8896 185.602 98.0972 185.109 98.5122C184.616 98.9273 184.325 99.485 184.234 100.185H182.502ZM193.998 103.532C193.998 101.301 194.361 99.5628 195.087 98.3177C195.814 97.0595 197.085 96.4305 198.901 96.4305C200.703 96.4305 201.968 97.0595 202.694 98.3177C203.421 99.5628 203.784 101.301 203.784 103.532C203.784 105.801 203.421 107.565 202.694 108.824C201.968 110.082 200.703 110.711 198.901 110.711C197.085 110.711 195.814 110.082 195.087 108.824C194.361 107.565 193.998 105.801 193.998 103.532ZM202.033 103.532C202.033 102.403 201.955 101.45 201.799 100.672C201.657 99.8806 201.352 99.245 200.885 98.7651C200.431 98.2852 199.77 98.0453 198.901 98.0453C198.019 98.0453 197.344 98.2852 196.877 98.7651C196.423 99.245 196.118 99.8806 195.963 100.672C195.82 101.45 195.749 102.403 195.749 103.532C195.749 104.699 195.82 105.678 195.963 106.469C196.118 107.261 196.423 107.896 196.877 108.376C197.344 108.856 198.019 109.096 198.901 109.096C199.77 109.096 200.431 108.856 200.885 108.376C201.352 107.896 201.657 107.261 201.799 106.469C201.955 105.678 202.033 104.699 202.033 103.532ZM212.46 110.711L208.277 106.003V110.711H206.506V96.3138H208.277V104.777L212.382 100.049H214.853L209.833 105.36L214.872 110.711H212.46ZM215.955 114.329V114.154C217.291 112.779 218.302 111.178 218.99 109.349C219.69 107.52 220.04 105.6 220.04 103.59C220.04 101.528 219.671 99.5433 218.931 97.6367C218.205 95.7171 217.115 94.0764 215.663 92.7145V92.5394H217.511C218.873 93.7975 219.917 95.3994 220.643 97.3449C221.383 99.2774 221.752 101.359 221.752 103.59C221.752 105.769 221.402 107.799 220.702 109.68C220.014 111.56 219.048 113.11 217.803 114.329H215.955Z" fill="white"/>
<path d="M27.4256 72.577H20.8206L19.6857 75.8H16.9846L22.6364 60.0023H25.6325L31.2843 75.8H28.5605L27.4256 72.577ZM26.6993 70.466L24.1344 63.1346L21.5469 70.466H26.6993ZM32.8792 69.49C32.8792 68.2341 33.1364 67.1219 33.6509 66.1535C34.1805 65.185 34.8917 64.436 35.7845 63.9064C36.6924 63.3616 37.6987 63.0892 38.8033 63.0892C39.7717 63.0892 40.6267 63.286 41.3682 63.6794C42.1248 64.0728 42.7073 64.5495 43.1159 65.1094V63.2935H45.7262V81.7469H43.1159V73.9842C42.7073 74.5441 42.1172 75.0208 41.3455 75.4142C40.5737 75.8076 39.6961 76.0043 38.7125 76.0043C37.6381 76.0043 36.6546 75.732 35.7618 75.1872C34.8841 74.6273 34.1805 73.8556 33.6509 72.872C33.1364 71.8733 32.8792 70.746 32.8792 69.49ZM43.1159 69.5354C43.1159 68.6729 42.9343 67.9239 42.5711 67.2883C42.2231 66.6528 41.7616 66.1686 41.1866 65.8357C40.6116 65.5028 39.9912 65.3363 39.3254 65.3363C38.6595 65.3363 38.0391 65.5028 37.4641 65.8357C36.8891 66.1535 36.42 66.6301 36.0569 67.2656C35.7088 67.8861 35.5348 68.6275 35.5348 69.49C35.5348 70.3526 35.7088 71.1092 36.0569 71.7598C36.42 72.4105 36.8891 72.9099 37.4641 73.2579C38.0543 73.5908 38.6747 73.7572 39.3254 73.7572C39.9912 73.7572 40.6116 73.5908 41.1866 73.2579C41.7616 72.925 42.2231 72.4408 42.5711 71.8052C42.9343 71.1546 43.1159 70.398 43.1159 69.5354ZM60.451 63.2935V75.8H57.8635V74.3247C57.4549 74.8392 56.9177 75.2477 56.2519 75.5504C55.6013 75.8379 54.9052 75.9816 54.1637 75.9816C53.1802 75.9816 52.2949 75.7774 51.5081 75.3688C50.7364 74.9602 50.1235 74.355 49.6696 73.553C49.2307 72.751 49.0113 71.7825 49.0113 70.6476V63.2935H51.5762V70.2618C51.5762 71.3815 51.8561 72.244 52.416 72.8493C52.9759 73.4395 53.74 73.7345 54.7085 73.7345C55.6769 73.7345 56.4411 73.4395 57.001 72.8493C57.576 72.244 57.8635 71.3815 57.8635 70.2618V63.2935H60.451ZM63.0026 69.49C63.0026 68.2341 63.2598 67.1219 63.7743 66.1535C64.3039 65.185 65.0151 64.436 65.9079 63.9064C66.8158 63.3616 67.8146 63.0892 68.904 63.0892C69.8876 63.0892 70.7426 63.286 71.4689 63.6794C72.2104 64.0577 72.8005 64.5343 73.2393 65.1094V63.2935H75.8496V75.8H73.2393V73.9388C72.8005 74.529 72.2028 75.0208 71.4462 75.4142C70.6896 75.8076 69.8271 76.0043 68.8587 76.0043C67.7843 76.0043 66.8007 75.732 65.9079 75.1872C65.0151 74.6273 64.3039 73.8556 63.7743 72.872C63.2598 71.8733 63.0026 70.746 63.0026 69.49ZM73.2393 69.5354C73.2393 68.6729 73.0578 67.9239 72.6946 67.2883C72.3466 66.6528 71.885 66.1686 71.31 65.8357C70.735 65.5028 70.1146 65.3363 69.4488 65.3363C68.783 65.3363 68.1626 65.5028 67.5876 65.8357C67.0126 66.1535 66.5435 66.6301 66.1803 67.2656C65.8323 67.8861 65.6583 68.6275 65.6583 69.49C65.6583 70.3526 65.8323 71.1092 66.1803 71.7598C66.5435 72.4105 67.0126 72.9099 67.5876 73.2579C68.1777 73.5908 68.7981 73.7572 69.4488 73.7572C70.1146 73.7572 70.735 73.5908 71.31 73.2579C71.885 72.925 72.3466 72.4408 72.6946 71.8052C73.0578 71.1546 73.2393 70.398 73.2393 69.5354ZM94.3877 63.0892C95.3713 63.0892 96.249 63.2935 97.0207 63.7021C97.8075 64.1106 98.4204 64.7159 98.8592 65.5179C99.3132 66.3199 99.5401 67.2883 99.5401 68.4232V75.8H96.9753V68.8091C96.9753 67.6893 96.6953 66.8344 96.1355 66.2442C95.5756 65.639 94.8114 65.3363 93.843 65.3363C92.8745 65.3363 92.1028 65.639 91.5278 66.2442C90.9679 66.8344 90.688 67.6893 90.688 68.8091V75.8H88.1231V68.8091C88.1231 67.6893 87.8432 66.8344 87.2833 66.2442C86.7234 65.639 85.9593 65.3363 84.9908 65.3363C84.0224 65.3363 83.2506 65.639 82.6756 66.2442C82.1157 66.8344 81.8358 67.6893 81.8358 68.8091V75.8H79.2482V63.2935H81.8358V64.7235C82.2595 64.209 82.7967 63.808 83.4474 63.5205C84.098 63.233 84.7941 63.0892 85.5356 63.0892C86.5343 63.0892 87.427 63.3011 88.2139 63.7248C89.0008 64.1485 89.606 64.7613 90.0297 65.5633C90.408 64.8067 90.9982 64.209 91.8002 63.7702C92.6022 63.3162 93.4647 63.0892 94.3877 63.0892ZM114.295 69.2404C114.295 69.7095 114.265 70.1331 114.204 70.5114H104.649C104.724 71.5102 105.095 72.3121 105.761 72.9174C106.427 73.5227 107.244 73.8253 108.212 73.8253C109.604 73.8253 110.588 73.2428 111.163 72.0776H113.955C113.576 73.2276 112.888 74.1734 111.889 74.9148C110.906 75.6412 109.68 76.0043 108.212 76.0043C107.017 76.0043 105.942 75.7395 104.989 75.2099C104.051 74.6652 103.309 73.9086 102.765 72.9401C102.235 71.9565 101.97 70.8216 101.97 69.5354C101.97 68.2492 102.227 67.1219 102.742 66.1535C103.272 65.1699 104.005 64.4133 104.944 63.8837C105.897 63.354 106.986 63.0892 108.212 63.0892C109.392 63.0892 110.444 63.3465 111.367 63.861C112.29 64.3755 113.009 65.1018 113.523 66.04C114.038 66.963 114.295 68.0298 114.295 69.2404ZM111.594 68.4232C111.579 67.4699 111.239 66.7058 110.573 66.1308C109.907 65.5557 109.082 65.2682 108.099 65.2682C107.206 65.2682 106.442 65.5557 105.806 66.1308C105.171 66.6906 104.792 67.4548 104.671 68.4232H111.594ZM123.152 63.0892C124.135 63.0892 125.013 63.2935 125.785 63.7021C126.571 64.1106 127.184 64.7159 127.623 65.5179C128.062 66.3199 128.281 67.2883 128.281 68.4232V75.8H125.716V68.8091C125.716 67.6893 125.437 66.8344 124.877 66.2442C124.317 65.639 123.553 65.3363 122.584 65.3363C121.616 65.3363 120.844 65.639 120.269 66.2442C119.709 66.8344 119.429 67.6893 119.429 68.8091V75.8H116.842V63.2935H119.429V64.7235C119.853 64.209 120.39 63.808 121.041 63.5205C121.707 63.233 122.41 63.0892 123.152 63.0892Z" fill="#F3F3F4"/>
<defs>
<linearGradient id="paint0_linear_33_2061" x1="121.596" y1="0.540405" x2="121.596" y2="71.5707" gradientUnits="userSpaceOnUse">
<stop stop-color="#1D1B1B" stop-opacity="0"/>
<stop offset="1" stop-color="#1D1B1B" stop-opacity="0.9"/>
</linearGradient>
</defs>
</svg>
